ply
format ascii 1.0
comment Created by Blender 2.81 (sub 16) - www.blender.org, source file: 'basicIES.blend'
element vertex 8
property float x
property float y
property float z
property float nx
property float ny
property float nz
property float s
property float t
element face 2
property list uchar uint vertex_indices
end_header
2.580360 10.770222 3.598089 -0.301148 -0.941421 -0.151779 0.000000 0.000000
4.487445 10.172932 3.518929 -0.301148 -0.941421 -0.151779 1.000000 0.000000
4.471313 9.859636 5.494173 -0.301148 -0.941421 -0.151779 1.000000 1.000000
2.564226 10.456926 5.573333 -0.301148 -0.941421 -0.151779 0.000000 1.000000
-2.580360 10.770221 3.598089 0.301149 -0.941420 -0.151779 0.000000 0.000000
-2.564227 10.456926 5.573333 0.301149 -0.941420 -0.151779 0.000000 1.000000
-4.471313 9.859634 5.494173 0.301149 -0.941420 -0.151779 1.000000 1.000000
-4.487447 10.172930 3.518929 0.301149 -0.941420 -0.151779 1.000000 0.000000
4 0 1 2 3
4 4 5 6 7
